<svg xmlns="http://www.w3.org/2000/svg" xmlns:xlink="http://www.w3.org/1999/xlink" width="554" zoomAndPan="magnify" viewBox="0 0 415.5 510.74999" height="681" preserveAspectRatio="xMidYMid meet" version="1.0"><defs><g/></defs><g fill="#000000" fill-opacity="1"><g transform="translate(75.687275, 365.310518)"><g><path d="M 38.101562 22.199219 C 39 22.199219 39.601562 21.898438 40.5 21.300781 C 49.800781 16.800781 60.898438 -13.199219 64.199219 -22.800781 C 65.699219 -27.601562 68.101562 -31.800781 70.800781 -35.101562 C 93.601562 -65.398438 122.398438 -90.601562 152.699219 -113.101562 C 154.800781 -114.601562 156.601562 -116.398438 158.699219 -117.898438 C 159.601562 -118.5 159.601562 -119.398438 159 -120.300781 C 158.101562 -121.800781 157.5 -122.398438 156.601562 -122.398438 C 156.300781 -122.398438 155.699219 -122.101562 154.5 -121.800781 L 151.800781 -120 C 124.199219 -99.898438 99.601562 -78 77.101562 -52.5 C 76.199219 -51.300781 75.300781 -49.5 73.199219 -49.199219 C 72.898438 -50.398438 72.898438 -51.601562 73.199219 -52.800781 C 73.5 -53.699219 74.101562 -54.898438 74.398438 -56.101562 C 76.5 -63.601562 78.300781 -70.800781 80.398438 -78.300781 C 82.5 -85.5 84.300781 -92.699219 86.101562 -100.199219 C 90.898438 -117.601562 98.699219 -147.898438 105 -166.199219 C 112.199219 -188.398438 120.898438 -209.699219 130.800781 -228.898438 C 134.699219 -236.101562 140.101562 -241.800781 146.699219 -246.300781 C 152.101562 -249.601562 177.898438 -266.699219 180.898438 -272.101562 C 183 -274.199219 182.101562 -276.601562 181.199219 -278.699219 C 180.300781 -280.199219 178.5 -281.101562 176.398438 -281.101562 C 173.699219 -280.800781 171.300781 -280.5 168.898438 -279.300781 C 158.101562 -274.800781 146.398438 -262.800781 140.398438 -253.5 C 135.300781 -246.300781 129.300781 -240.300781 121.800781 -235.800781 C 120.898438 -235.5 119.699219 -234.601562 118.199219 -233.398438 C 98.101562 -219.300781 78.601562 -206.101562 59.398438 -190.800781 C 42.300781 -177 14.699219 -154.199219 3.300781 -135 C 2.101562 -132.601562 1.199219 -130.5 0.300781 -127.800781 C -0.601562 -125.101562 0.601562 -123.300781 3.898438 -122.699219 C 5.101562 -122.398438 6.601562 -123.601562 5.699219 -124.800781 C 4.5 -126.898438 5.101562 -128.398438 6 -129.898438 C 15.601562 -145.800781 29.398438 -158.699219 43.5 -170.699219 C 67.800781 -192.300781 94.800781 -210.300781 121.5 -228.601562 C 121.800781 -228.898438 122.398438 -229.199219 122.699219 -229.199219 C 123.300781 -229.199219 123.601562 -228.898438 123.601562 -228.300781 C 123.300781 -227.101562 123 -225.898438 122.101562 -224.398438 C 116.398438 -213.898438 112.199219 -203.398438 108.300781 -192.300781 C 97.199219 -162 88.199219 -131.398438 80.101562 -100.199219 C 77.398438 -89.699219 74.699219 -79.5 72 -69.601562 C 69.300781 -59.398438 66.601562 -49.199219 63.300781 -39 C 61.800781 -34.5 59.699219 -29.699219 56.398438 -25.199219 C 47.101562 -12.300781 38.101562 1.199219 33.601562 16.5 C 32.699219 18.601562 33.300781 20.101562 34.800781 21 C 36 21.898438 37.199219 22.199219 38.101562 22.199219 Z M 45.300781 6.601562 C 45 5.699219 45 4.800781 45.898438 4.199219 C 45.601562 5.398438 45.300781 6.300781 45.300781 6.601562 Z M 46.199219 3.300781 C 46.199219 2.398438 46.5 1.800781 47.398438 1.199219 C 47.101562 2.398438 46.5 3 46.199219 3.300781 Z M 152.699219 -258.300781 C 156.601562 -264.601562 166.800781 -274.5 174.898438 -274.5 C 171.898438 -270.601562 159 -261 152.699219 -258.300781 Z M 152.699219 -258.300781 "/></g></g></g><g fill="#000000" fill-opacity="1"><g transform="translate(243.105558, 365.310518)"><g><path d="M 12 -10.800781 L 14.101562 -11.101562 C 39 -15.300781 80.101562 -42.601562 102 -57.300781 L 106.5 -60.898438 C 107.699219 -62.101562 107.699219 -63.601562 106.5 -65.101562 C 106.199219 -65.398438 105.898438 -65.699219 105.300781 -65.699219 C 105 -65.699219 104.398438 -65.398438 103.5 -65.101562 L 102.300781 -64.199219 C 75.898438 -45.300781 48.601562 -28.199219 17.699219 -17.101562 C 15.601562 -15.898438 13.5 -15.300781 11.101562 -15.300781 C 9 -15.300781 8.101562 -16.800781 8.699219 -20.101562 C 15 -53.699219 58.199219 -111.898438 80.101562 -137.699219 C 86.398438 -145.199219 93 -152.699219 99.898438 -159.898438 C 106.5 -167.101562 113.101562 -174.300781 119.398438 -181.800781 C 125.699219 -189 132 -195.898438 136.5 -204.300781 C 138 -207 139.199219 -209.398438 140.101562 -212.699219 C 141 -220.199219 138 -226.800781 130.800781 -230.101562 C 126.898438 -231.601562 122.398438 -232.5 117.300781 -232.5 C 112.199219 -232.5 107.398438 -231.601562 102.601562 -230.398438 C 69.898438 -222.300781 17.699219 -197.699219 1.5 -167.699219 C 0.601562 -166.199219 0.300781 -165 0 -162.898438 C -0.300781 -159.601562 2.699219 -156.601562 6 -156.601562 C 8.699219 -156.898438 10.5 -157.800781 11.699219 -159.300781 C 12.300781 -159.898438 12.300781 -160.5 12 -161.101562 C 12 -161.398438 11.398438 -162.300781 10.5 -162 C 10.199219 -162 9.601562 -162 9 -161.699219 C 8.398438 -161.398438 7.800781 -161.398438 7.199219 -161.101562 C 6.300781 -161.101562 5.699219 -161.101562 5.398438 -161.398438 C 5.101562 -161.699219 5.101562 -162.300781 5.101562 -163.199219 C 21 -193.199219 84.898438 -226.5 120.601562 -226.5 C 124.5 -226.5 128.101562 -226.5 131.398438 -224.398438 C 137.101562 -221.699219 137.101562 -219.300781 135.898438 -214.800781 C 134.398438 -210.898438 132.601562 -207.601562 130.199219 -204.300781 C 126.300781 -198.601562 121.800781 -193.5 117.300781 -188.398438 C 99 -168 77.101562 -144 57.300781 -118.5 C 37.5 -93 19.800781 -66 9.300781 -39.898438 C 6.601562 -33.898438 4.5 -28.199219 3.601562 -21.300781 C 2.398438 -15 6.300781 -10.800781 12 -10.800781 Z M 12 -10.800781 "/></g></g></g></svg>